<svg xmlns="http://www.w3.org/2000/svg" viewBox="0 0 422.03 261.2"><defs><style>.cls-1{fill:#78060d;}.cls-2{fill:#9d9d9d;}.cls-3{fill:#95131b;}.cls-4{fill:#c1c1c1;}</style></defs><title>bannerAsset 1</title><g id="Layer_2" data-name="Layer 2"><g id="Fit_fuel" data-name="Fit fuel"><g id="Layer_3_copy" data-name="Layer 3 copy"><path class="cls-1" d="M185.47,68c15.46-10.89,31.79-17.62,46.09-19.85a62,62,0,0,0-52.64,4.29c-6.45-13.46-8-19.87-1.82-24.33,9.7-7,23.53-8.45,33.42-8.45,9.17,0,18.93.47,28.49,6.06,5.16,3,6.19,6.6,6.32,9.49L260,20.7A29.3,29.3,0,0,0,249,9.09C236.09,1.1,222.92,0,210.61,0c-18.51,0-34,4.36-44.9,12.6-17.42,13.22-8.58,32.85-.34,50.36a60.55,60.55,0,0,0-17.14,42.24c0,1.78.08,3.53.23,5.27C154.66,96,167.65,80.52,185.47,68Z"/><path class="cls-2" d="M231.19,132.85a120.39,120.39,0,0,1-36.53,17.76l-10.21,10.21a61.75,61.75,0,0,0,25.35,5.42c34,0,61.57-27.33,61.57-61A60.43,60.43,0,0,0,269,88.42C263.16,103.39,249.8,119.73,231.19,132.85Z"/><path class="cls-3" d="M232,48.28l-.48-.17c-14.3,2.23-30.63,9-46.09,19.85-17.82,12.56-30.81,28.07-37,42.51a60.82,60.82,0,0,0,23.63,43q2,1.53,4.09,2.9l2.08-2.92L207.72,112l-33.39-6.78Z"/><path class="cls-4" d="M252.86,61.59l.92.41c.65-1.43,2.63-6.14,4.59-11.49,2.28-6.24,4.51-13.35,4.51-17.12a28.73,28.73,0,0,0-1.75-10.09l-16.7,24.06L212.8,92.94l33.1,6.41-51.24,51.26a120.39,120.39,0,0,0,36.53-17.76c18.61-13.12,32-29.46,37.8-44.43A60.81,60.81,0,0,0,252.86,61.59Z"/><path class="cls-4" d="M67.14,207.3c1.54,0,2.08.77,1.77,2.31l-2.08,10A2.65,2.65,0,0,1,64,221.93H30.57c-5.39,0-6.7,1.16-7.86,6.55H62.14c1.54,0,2.15.77,1.84,2.31L62.21,239a2.57,2.57,0,0,1-2.77,2.31H19.94l-3.69,17.56a2.58,2.58,0,0,1-2.78,2.31H1.93c-1.54,0-2.16-.77-1.85-2.31l6.7-31.26c3.15-14.78,10.39-20.33,26.33-20.33Z"/><path class="cls-4" d="M90.24,207.3c1.54,0,2.08.77,1.77,2.31L81.54,258.89a2.57,2.57,0,0,1-2.77,2.31H67.22c-1.54,0-2.16-.77-1.85-2.31l10.47-49.28a2.65,2.65,0,0,1,2.85-2.31Z"/><path class="cls-4" d="M161.31,207.3c1.54,0,2.16.77,1.85,2.31L160.93,220a2.58,2.58,0,0,1-2.78,2.31H136.06l-7.78,36.57a2.57,2.57,0,0,1-2.77,2.31H114c-1.54,0-2.16-.77-1.85-2.31l7.78-36.57H97.79c-1.54,0-2.16-.77-1.85-2.31l2.23-10.4A2.58,2.58,0,0,1,101,207.3Z"/><path class="cls-1" d="M223.68,207.3c1.54,0,2.08.77,1.77,2.31l-2.08,10a2.65,2.65,0,0,1-2.85,2.31H187.11c-5.39,0-6.7,1.16-7.86,6.55h39.43c1.54,0,2.15.77,1.84,2.31L218.75,239a2.57,2.57,0,0,1-2.77,2.31h-39.5l-3.69,17.56A2.58,2.58,0,0,1,170,261.2H158.47c-1.54,0-2.16-.77-1.85-2.31l6.7-31.26c3.15-14.78,10.39-20.33,26.33-20.33Z"/><path class="cls-1" d="M246.55,207.3c1.54,0,2.16.77,1.85,2.31l-6.31,29.65a20.21,20.21,0,0,0-.54,3.61c0,2.62,1.54,3.31,5.54,3.31H268.5c5.46,0,6.69-1.15,7.93-6.92l6.31-29.65a2.57,2.57,0,0,1,2.77-2.31h11.55c1.54,0,2.16.77,1.85,2.31l-6.62,31.26c-3.16,14.79-10.4,20.33-26.34,20.33H243.32c-12.94,0-18.64-3.7-18.64-12.94a34.32,34.32,0,0,1,.93-7.39l6.62-31.26A2.57,2.57,0,0,1,235,207.3Z"/><path class="cls-1" d="M364.21,207.3c1.54,0,2.15.77,1.84,2.31l-2.15,10a2.57,2.57,0,0,1-2.77,2.31H327.32c-5.08,0-6.54,1-7.7,5.7h39.81c1.54,0,2.16.77,1.85,2.31l-1.77,8.24a2.57,2.57,0,0,1-2.77,2.31H316.93a14.78,14.78,0,0,0-.39,2.77c0,2.62,1.54,3.31,5.55,3.31h33.8c1.54,0,2.16.77,1.85,2.31l-2.16,10a2.57,2.57,0,0,1-2.77,2.31h-34c-12.94,0-18.56-3.62-18.56-12.94,0-2.15.31-4.62,3.62-20.63,3.08-14.78,10.39-20.33,26.33-20.33Z"/><path class="cls-1" d="M388.46,207.3c1.54,0,2.16.77,1.85,2.31L384,239.26a20.21,20.21,0,0,0-.54,3.61c0,2.62,1.54,3.31,5.54,3.31h31.11c1.54,0,2.15.78,1.84,2.32l-2.23,10.39A2.57,2.57,0,0,1,417,261.2H385.23c-12.94,0-18.63-3.7-18.63-12.94a34.25,34.25,0,0,1,.92-7.39l6.62-31.26a2.57,2.57,0,0,1,2.77-2.31Z"/><g id="Right"><path class="cls-2" d="M280.1,108a68.47,68.47,0,0,0-1.24-13c16.22,3.8,34.18,12.7,51.82,25.74l17.46-33.29L362.5,95l-43.25,82.48-14.36-7.54,18.27-34.83C308.53,124,293.43,115.92,280,111.87,280.06,110.58,280.1,109.28,280.1,108Z"/><rect class="cls-2" x="343.83" y="107.7" width="16.22" height="69.31" transform="translate(597.49 431.89) rotate(-152.32)"/><rect class="cls-2" x="362.43" y="129.44" width="16.22" height="45.02" transform="translate(628.1 458.61) rotate(-152.32)"/></g><g id="Left"><path class="cls-1" d="M140.5,108a68.47,68.47,0,0,1,1.25-13c-16.22,3.8-34.18,12.7-51.83,25.74L72.46,87.45,58.1,95l43.26,82.48,14.36-7.54L97.45,135.09c14.62-11.1,29.72-19.17,43.17-23.22C140.55,110.58,140.5,109.28,140.5,108Z"/><rect class="cls-1" x="60.56" y="107.7" width="16.22" height="69.31" transform="translate(-58.26 48.18) rotate(-27.68)"/><rect class="cls-1" x="41.96" y="129.44" width="16.22" height="45.02" transform="translate(-64.85 40.64) rotate(-27.68)"/></g></g></g></g></svg>