<svg id="Fit_fuel" data-name="Fit fuel" xmlns="http://www.w3.org/2000/svg" viewBox="0 0 422.03 261.2"><defs><style>.cls-1{fill:#78060d;}.cls-2{fill:#9d9d9d;}.cls-3{fill:#95131b;}.cls-4{fill:#c1c1c1;}</style></defs><title>logo-dark</title><g id="Layer_2_copy_2" data-name="Layer 2 copy 2"><path class="cls-1" d="M233.28,173.93c15.45-10.89,31.79-17.62,46.08-19.85a61.93,61.93,0,0,0-52.63,4.29c-6.46-13.45-8-19.87-1.83-24.33,9.71-7,23.54-8.44,33.42-8.44,9.18,0,18.93.47,28.5,6.06,5.16,3,6.18,6.59,6.32,9.48l14.67-14.47a29.25,29.25,0,0,0-11-11.61c-12.94-8-26.11-9.09-38.42-9.09-18.51,0-34,4.36-44.9,12.61-17.42,13.22-8.59,32.85-.34,50.36A60.53,60.53,0,0,0,196,211.17c0,1.78.08,3.54.23,5.28C202.46,202,215.45,186.49,233.28,173.93Z" transform="translate(-47.81 -105.97)"/><path class="cls-2" d="M279,238.82a120.27,120.27,0,0,1-36.53,17.76L232.25,266.8a61.79,61.79,0,0,0,25.35,5.42c34,0,61.57-27.33,61.57-61.05a60.67,60.67,0,0,0-2.37-16.77C311,209.37,297.61,225.71,279,238.82Z" transform="translate(-47.81 -105.97)"/><path class="cls-3" d="M279.84,154.25l-.48-.17c-14.29,2.23-30.63,9-46.08,19.85-17.83,12.56-30.82,28.08-37,42.52a60.82,60.82,0,0,0,23.63,43q2,1.53,4.09,2.9l2.07-2.92L255.52,218l-33.39-6.79Z" transform="translate(-47.81 -105.97)"/><path class="cls-4" d="M300.67,167.56l.91.42c.65-1.44,2.64-6.15,4.59-11.49,2.28-6.25,4.51-13.36,4.51-17.13a28.5,28.5,0,0,0-1.75-10.09l-16.7,24.07-31.62,45.57,33.1,6.41-51.24,51.26A120.27,120.27,0,0,0,279,238.82c18.61-13.11,32-29.45,37.8-44.42A61.08,61.08,0,0,0,300.67,167.56Z" transform="translate(-47.81 -105.97)"/></g><g id="Layer_5_copy_2" data-name="Layer 5 copy 2"><path class="cls-4" d="M115,313.28c1.54,0,2.07.77,1.77,2.31l-2.08,10a2.65,2.65,0,0,1-2.85,2.31H78.37c-5.39,0-6.7,1.15-7.85,6.54h39.42c1.54,0,2.16.77,1.85,2.31L110,345a2.57,2.57,0,0,1-2.77,2.31H67.75l-3.7,17.55a2.57,2.57,0,0,1-2.77,2.31H49.73c-1.54,0-2.16-.77-1.85-2.31l6.7-31.26c3.16-14.78,10.4-20.32,26.33-20.32Z" transform="translate(-47.81 -105.97)"/><path class="cls-4" d="M138.05,313.28c1.54,0,2.08.77,1.77,2.31l-10.47,49.27a2.57,2.57,0,0,1-2.77,2.31H115c-1.54,0-2.16-.77-1.85-2.31l10.47-49.27a2.65,2.65,0,0,1,2.85-2.31Z" transform="translate(-47.81 -105.97)"/><path class="cls-4" d="M209.12,313.28c1.54,0,2.15.77,1.84,2.31L208.73,326a2.57,2.57,0,0,1-2.77,2.31h-22.1l-7.78,36.57a2.56,2.56,0,0,1-2.77,2.31H161.76c-1.54,0-2.15-.77-1.84-2.31l7.77-36.57h-22.1c-1.54,0-2.15-.77-1.84-2.31L146,315.59a2.57,2.57,0,0,1,2.77-2.31Z" transform="translate(-47.81 -105.97)"/><path class="cls-1" d="M271.49,313.28c1.54,0,2.07.77,1.77,2.31l-2.08,10a2.65,2.65,0,0,1-2.85,2.31H234.91c-5.39,0-6.7,1.15-7.85,6.54h39.42c1.54,0,2.16.77,1.85,2.31L266.56,345a2.57,2.57,0,0,1-2.77,2.31h-39.5l-3.7,17.55a2.57,2.57,0,0,1-2.77,2.31H206.27c-1.54,0-2.16-.77-1.85-2.31l6.7-31.26c3.16-14.78,10.4-20.32,26.33-20.32Z" transform="translate(-47.81 -105.97)"/><path class="cls-1" d="M294.36,313.28c1.54,0,2.15.77,1.85,2.31l-6.32,29.64a20.29,20.29,0,0,0-.54,3.62c0,2.62,1.54,3.31,5.55,3.31h21.4c5.47,0,6.7-1.16,7.93-6.93l6.31-29.64a2.58,2.58,0,0,1,2.78-2.31h11.55c1.54,0,2.15.77,1.84,2.31l-6.62,31.26c-3.15,14.78-10.39,20.32-26.33,20.32H291.12c-12.93,0-18.63-3.69-18.63-12.93a34.82,34.82,0,0,1,.92-7.39L280,315.59a2.56,2.56,0,0,1,2.77-2.31Z" transform="translate(-47.81 -105.97)"/><path class="cls-1" d="M412,313.28c1.54,0,2.16.77,1.85,2.31l-2.16,10a2.57,2.57,0,0,1-2.77,2.31h-33.8c-5.08,0-6.55,1-7.7,5.69h39.81c1.54,0,2.15.77,1.84,2.31l-1.77,8.24a2.56,2.56,0,0,1-2.77,2.31h-39.8a14.09,14.09,0,0,0-.39,2.77c0,2.62,1.54,3.31,5.54,3.31H403.7c1.53,0,2.15.77,1.84,2.31l-2.15,10a2.57,2.57,0,0,1-2.77,2.31h-34c-12.93,0-18.55-3.62-18.55-12.93,0-2.16.3-4.62,3.62-20.64,3.08-14.78,10.39-20.32,26.33-20.32Z" transform="translate(-47.81 -105.97)"/><path class="cls-1" d="M436.27,313.28c1.54,0,2.15.77,1.85,2.31l-6.32,29.64a20.29,20.29,0,0,0-.54,3.62c0,2.62,1.54,3.31,5.55,3.31h31.1c1.54,0,2.16.77,1.85,2.31l-2.23,10.39a2.58,2.58,0,0,1-2.77,2.31H433c-12.93,0-18.63-3.69-18.63-12.93a34.82,34.82,0,0,1,.92-7.39L422,315.59a2.56,2.56,0,0,1,2.77-2.31Z" transform="translate(-47.81 -105.97)"/></g><g id="Layer_3_copy" data-name="Layer 3 copy"><g id="Right"><path class="cls-2" d="M327.91,214a68.39,68.39,0,0,0-1.25-13c16.22,3.79,34.18,12.69,51.83,25.74L396,193.43,410.31,201l-43.26,82.47-14.36-7.53L371,241.07c-14.62-11.1-29.72-19.18-43.17-23.23C327.86,216.55,327.91,215.25,327.91,214Z" transform="translate(-47.81 -105.97)"/><rect class="cls-2" x="391.64" y="213.67" width="16.22" height="69.31" transform="translate(590.6 547.94) rotate(-152.32)"/><rect class="cls-2" x="410.23" y="235.41" width="16.22" height="45.02" transform="translate(621.21 574.67) rotate(-152.32)"/></g><g id="Left"><path class="cls-1" d="M188.31,214a68.39,68.39,0,0,1,1.24-13c-16.22,3.79-34.18,12.69-51.82,25.74l-17.46-33.29L105.91,201l43.25,82.47,14.36-7.53-18.27-34.83c14.63-11.1,29.73-19.18,43.17-23.23C188.35,216.55,188.31,215.25,188.31,214Z" transform="translate(-47.81 -105.97)"/><rect class="cls-1" x="108.36" y="213.67" width="16.22" height="69.31" transform="translate(-149.82 -23.46) rotate(-27.68)"/><rect class="cls-1" x="89.77" y="235.41" width="16.22" height="45.02" transform="translate(-156.41 -31) rotate(-27.68)"/></g></g></svg>